<?xml version="1.0" encoding="utf-8"?>
<!-- Generator: Adobe Illustrator 22.1.0, SVG Export Plug-In . SVG Version: 6.00 Build 0)  -->
<svg version="1.1" baseProfile="tiny" id="pr_x5F_cc_x5F_app_x5F_RGB.svg"
	 xmlns="http://www.w3.org/2000/svg" xmlns:xlink="http://www.w3.org/1999/xlink" x="0px" y="0px" viewBox="0 0 240 234"
	 xml:space="preserve">
<g>
	<path fill="#26C9FF" d="M197.5,234h-155C19,234,0,215,0,191.5v-149C0,19,19,0,42.5,0h155C221,0,240,19,240,42.5v149
		C240,215,221,234,197.5,234z"/>
	<path fill="#061E26" d="M193.7,224H46.3C26.3,224,10,207.7,10,187.7V46.3C10,26.3,26.3,10,46.3,10h147.3
		c20.1,0,36.3,16.3,36.3,36.3v141.3C230,207.7,213.7,224,193.7,224z"/>
	<path fill-rule="evenodd" fill="#D9F5FF" d="M59,58.6c0-0.6,0.2-1.1,1-1.1c6.3-0.3,15.3-0.5,25-0.5c27,0,38.8,14.8,38.8,33.8
		c0,24.8-18.2,35.4-40.2,35.4c-3.7,0-5-0.2-7.6-0.2v38c0,0.8-0.3,1.1-1.1,1.1H60.1c-0.8,0-1.1-0.3-1.1-1.1V58.6z M76,110.4
		c2.2,0.2,4,0.2,7.9,0.2c11.4,0,22.3-4,22.3-19.5c0-12.4-7.8-18.7-20.9-18.7c-3.9,0-7.6,0.2-9.3,0.3V110.4z M163.2,98.8
		c-7.7,0-10.3,3.9-10.3,7.1c0,3.5,1.8,6,12.1,11.3c15.3,7.4,20.1,14.5,20.1,25c0,15.6-11.9,24-28,24c-8.5,0-16.1-1.8-20.3-4.2
		c-0.6-0.3-0.8-0.8-0.8-1.6V146c0-1,0.5-1.3,1.1-0.8c6.1,4,13.6,5.8,20,5.8c7.7,0,10.9-3.2,10.9-7.6c0-3.5-2.2-6.6-12.1-11.8
		c-13.9-6.6-19.6-13.4-19.6-24.6c0-12.6,9.8-23,26.9-23c8.4,0,14.6,1.3,17.8,2.7c0.8,0.5,1,1.3,1,1.9V102c0,0.8-0.5,1.3-1.4,1
		C176.2,100.4,169.5,98.8,163.2,98.8z"/>
</g>
</svg>
